<svg width="268" height="556" viewBox="0 0 268 556" fill="none" xmlns="http://www.w3.org/2000/svg">
<path d="M121.786 240.297C123.719 240.297 125.286 241.864 125.286 243.797V358.099C125.286 358.375 125.51 358.599 125.786 358.599H148.941C150.799 358.599 152.333 360.051 152.435 361.906L162.822 550.583C162.964 553.163 160.357 555.002 157.974 554.003L50.1392 508.796C48.828 508.246 47.9788 506.958 47.9917 505.536L50.3599 243.765C50.3774 241.844 51.9385 240.297 53.8589 240.297H121.786ZM227.466 114.6C229.727 114.6 231.395 116.713 230.871 118.912L179.708 333.647C179.332 335.224 177.923 336.336 176.302 336.336H152.833C150.901 336.336 149.333 334.769 149.333 332.836V218.534C149.333 218.258 149.11 218.034 148.833 218.034H80.0288C78.8271 218.034 77.7089 217.418 77.0679 216.401L16.2583 119.968C14.7886 117.637 16.4639 114.6 19.2192 114.6H227.466Z" fill="#564CCF" stroke="black" stroke-width="3"/>
<path d="M118.491 240.296C120.424 240.296 121.991 241.863 121.991 243.796V358.099C121.991 358.374 122.215 358.599 122.491 358.599H145.553C147.476 358.599 149.039 360.151 149.053 362.074L150.324 545.216C150.341 547.672 147.889 549.382 145.59 548.516L49.3477 512.223C47.9848 511.709 47.083 510.404 47.083 508.947V243.796C47.0831 241.863 48.6501 240.296 50.583 240.296H118.491ZM10.2402 114.753C8.59926 112.128 10.9246 108.82 13.9502 109.476L192.286 148.143C194.029 148.521 195.21 150.15 195.026 151.924L176.265 333.196C176.08 334.98 174.577 336.336 172.783 336.336H149.539C147.606 336.336 146.039 334.769 146.039 332.836V218.533C146.039 218.257 145.815 218.033 145.539 218.033H76.7393C75.5326 218.033 74.4111 217.412 73.7715 216.389L10.2402 114.753Z" fill="#12A400" stroke="black" stroke-width="3"/>
<mask id="mask0_1628_11804" style="mask-type:luminance" maskUnits="userSpaceOnUse" x="81" y="36" width="26" height="79">
<path d="M104.969 37.5V112.754H83.0674V37.5H104.969Z" fill="white" stroke="white" stroke-width="3"/>
</mask>
<g mask="url(#mask0_1628_11804)">
<path d="M94.084 38.2998C100.044 38.2999 104.693 42.7932 104.693 48.1143V112.727H83.4736V48.1143C83.4736 42.7856 88.1315 38.2998 94.084 38.2998Z" fill="white" stroke="black" stroke-width="3"/>
</g>
<mask id="mask1_1628_11804" style="mask-type:luminance" maskUnits="userSpaceOnUse" x="160" y="36" width="29" height="79">
<path d="M186.621 37.5V112.754H162.23V37.5H186.621Z" fill="white" stroke="white" stroke-width="3"/>
</mask>
<g mask="url(#mask1_1628_11804)">
<path d="M173.588 38.2998C179.407 38.2999 183.981 42.5813 184.198 47.7324V112.727H162.988V48.1143C162.988 42.784 167.638 38.2998 173.588 38.2998Z" fill="white" stroke="black" stroke-width="3"/>
</g>
<path d="M180.495 333L255.5 306L126.993 199M126.993 199L119.994 194M126.993 199L143.994 183" stroke="black" stroke-width="3" stroke-linecap="round" stroke-linejoin="bevel"/>
<path d="M45 308L2.00001 342L32 405.5M32 405.5L45 425M32 405.5L44.9998 398M32 405.5L44.9998 410.5" stroke="black" stroke-width="3" stroke-linecap="round" stroke-linejoin="bevel"/>
<path d="M93 88.5V59.5H96.5V88.5H93Z" fill="#363636" stroke="black" stroke-width="3" stroke-linecap="round" stroke-linejoin="bevel"/>
<path d="M172 88V59H175.5V88H172Z" fill="#363636" stroke="black" stroke-width="3" stroke-linecap="round" stroke-linejoin="bevel"/>
<path d="M190.5 1.5C190.5 1.5 168.619 33.6319 134 41.5C123 44 119.5 43.5 105.5 27C96.5457 16.4467 76 15 69.5 41.5" stroke="black" stroke-width="3" stroke-linecap="round" stroke-linejoin="bevel"/>
<path d="M92.5 185H123" stroke="black" stroke-width="3" stroke-linecap="round" stroke-linejoin="bevel"/>
</svg>
