<svg width="138" height="23" viewBox="0 0 138 23" fill="none" xmlns="http://www.w3.org/2000/svg">
<g clip-path="url(#clip0_1548_9479)">
<path d="M62.2485 6.38074V0.615234H63.4188V6.38074H62.2485Z" fill="#12A400"/>
<path d="M69.7039 6.38074H68.2166L65.816 2.01915H65.7821C65.7921 2.20055 65.8009 2.38327 65.8085 2.5673C65.816 2.75134 65.8236 2.93537 65.8311 3.11941C65.8387 3.30081 65.8463 3.48352 65.8536 3.66757V6.38074H64.8081V0.615234H66.284L68.6809 4.93344H68.7075C68.7024 4.75467 68.696 4.57721 68.6885 4.40107C68.6809 4.22492 68.6733 4.04877 68.6658 3.87262C68.6609 3.69649 68.6557 3.52034 68.6508 3.34419V0.615234H69.7039V6.38074Z" fill="#12A400"/>
<path d="M74.354 4.78044C74.354 5.12221 74.2749 5.4193 74.1163 5.67168C73.9578 5.92406 73.7262 6.11862 73.4218 6.25532C73.1198 6.39204 72.7524 6.46039 72.3196 6.46039C72.1283 6.46039 71.9408 6.44725 71.7572 6.42096C71.576 6.39466 71.401 6.35654 71.2324 6.3066C71.0664 6.25401 70.9079 6.18959 70.7568 6.11336V4.97761C71.0185 5.09854 71.2902 5.20765 71.5722 5.30492C71.8541 5.40221 72.1334 5.45084 72.4102 5.45084C72.6013 5.45084 72.7549 5.42455 72.8706 5.37196C72.989 5.31938 73.0744 5.2471 73.1274 5.15506C73.1801 5.06305 73.2067 4.95789 73.2067 4.83958C73.2067 4.69498 73.1601 4.57142 73.0669 4.4689C72.9738 4.36635 72.8454 4.2704 72.6819 4.18102C72.5208 4.09163 72.3384 3.99566 72.1346 3.89314C72.0062 3.83002 71.8666 3.75379 71.7157 3.6644C71.5646 3.57238 71.4213 3.46065 71.2853 3.32919C71.1494 3.19774 71.0373 3.03868 70.9494 2.85202C70.8638 2.66274 70.821 2.43663 70.821 2.17373C70.821 1.82933 70.8965 1.53487 71.0476 1.29037C71.1984 1.04587 71.4137 0.859204 71.693 0.730382C71.9747 0.598929 72.3069 0.533203 72.6894 0.533203C72.9763 0.533203 73.2494 0.568695 73.5087 0.639679C73.7704 0.708035 74.0433 0.807938 74.3277 0.939391L73.9503 1.88979C73.6961 1.782 73.4684 1.69919 73.267 1.64135C73.0656 1.58088 72.8606 1.55064 72.6518 1.55064C72.5059 1.55064 72.3811 1.57562 72.2781 1.62557C72.1749 1.6729 72.0968 1.74125 72.044 1.83064C71.9911 1.9174 71.9647 2.01861 71.9647 2.13429C71.9647 2.271 72.0025 2.38668 72.078 2.48133C72.1561 2.57335 72.2718 2.66274 72.4253 2.7495C72.5813 2.83624 72.7751 2.93746 73.0065 3.05314C73.2885 3.19249 73.5287 3.33839 73.7274 3.49088C73.9288 3.64073 74.0836 3.81821 74.1917 4.02326C74.3001 4.2257 74.354 4.47808 74.354 4.78044Z" fill="#12A400"/>
<path d="M77.4831 6.38074H76.313V1.63268H74.8145V0.615234H78.9816V1.63268H77.4831V6.38074Z" fill="#12A400"/>
<path d="M79.8311 6.38074V0.615234H81.0013V6.38074H79.8311Z" fill="#12A400"/>
<path d="M84.5192 6.38074H83.3492V1.63268H81.8506V0.615234H86.0178V1.63268H84.5192V6.38074Z" fill="#12A400"/>
<path d="M91.3593 0.615234V4.34585C91.3593 4.74283 91.2748 5.10171 91.1064 5.42244C90.9401 5.74057 90.6872 5.99295 90.3475 6.17963C90.0103 6.36628 89.5851 6.4596 89.0717 6.4596C88.3419 6.4596 87.7858 6.26506 87.4033 5.87596C87.0207 5.48686 86.8296 4.97157 86.8296 4.33009V0.615234H87.9959V4.14473C87.9959 4.62059 88.089 4.95448 88.2752 5.1464C88.4615 5.33833 88.7371 5.43428 89.102 5.43428C89.3586 5.43428 89.5663 5.38827 89.7247 5.29625C89.8858 5.20424 90.004 5.06226 90.0796 4.87035C90.1551 4.67844 90.1927 4.43394 90.1927 4.13685V0.615234H91.3593Z" fill="#12A400"/>
<path d="M94.8392 6.38074H93.669V1.63268H92.1704V0.615234H96.3376V1.63268H94.8392V6.38074Z" fill="#12A400"/>
<path d="M102.196 3.49095C102.196 3.93527 102.143 4.34013 102.038 4.70559C101.932 5.0684 101.771 5.38124 101.554 5.64416C101.341 5.90704 101.069 6.10949 100.739 6.25146C100.409 6.39079 100.019 6.46046 99.569 6.46046C99.1186 6.46046 98.7285 6.39079 98.3988 6.25146C98.0692 6.10949 97.7961 5.90704 97.5798 5.64416C97.3659 5.38124 97.206 5.06707 97.1003 4.70164C96.9946 4.3362 96.9419 3.93001 96.9419 3.48307C96.9419 2.88627 97.0349 2.36704 97.2212 1.92536C97.4099 1.48105 97.6992 1.13665 98.0892 0.892142C98.4793 0.647641 98.9751 0.525391 99.5766 0.525391C100.175 0.525391 100.667 0.647641 101.052 0.892142C101.44 1.13665 101.727 1.48105 101.913 1.92536C102.102 2.36967 102.196 2.89153 102.196 3.49095ZM98.1686 3.49095C98.1686 3.89321 98.2164 4.24023 98.3121 4.53207C98.4102 4.82125 98.5623 5.04473 98.7688 5.20247C98.9751 5.35758 99.2419 5.43513 99.569 5.43513C99.9012 5.43513 100.17 5.35758 100.377 5.20247C100.583 5.04473 100.733 4.82125 100.826 4.53207C100.922 4.24023 100.969 3.89321 100.969 3.49095C100.969 2.88627 100.861 2.41042 100.645 2.06338C100.428 1.71635 100.072 1.54283 99.5766 1.54283C99.2468 1.54283 98.9775 1.6217 98.7688 1.77945C98.5623 1.93456 98.4102 2.15803 98.3121 2.44985C98.2164 2.73904 98.1686 3.08609 98.1686 3.49095Z" fill="#12A400"/>
<path d="M106.499 6.38074H105.348V0.615234H108.511V1.6169H106.499V3.10362H108.372V4.10135H106.499V6.38074Z" fill="#12A400"/>
<path d="M112.769 6.38074H109.591V0.615234H112.769V1.6169H110.761V2.88279H112.629V3.88445H110.761V5.37118H112.769V6.38074Z" fill="#12A400"/>
<path d="M118.503 3.44278C118.503 4.09215 118.383 4.63506 118.144 5.07147C117.907 5.50527 117.564 5.83258 117.113 6.05341C116.663 6.27164 116.121 6.38074 115.487 6.38074H113.924V0.615234H115.656C116.235 0.615234 116.737 0.723024 117.162 0.938607C117.588 1.15156 117.917 1.46836 118.152 1.88901C118.385 2.30703 118.503 2.82495 118.503 3.44278ZM117.287 3.47433C117.287 3.04843 117.227 2.69876 117.106 2.42534C116.988 2.14928 116.811 1.94553 116.578 1.81408C116.346 1.68263 116.059 1.6169 115.717 1.6169H115.094V5.37118H115.596C116.167 5.37118 116.591 5.21212 116.868 4.89401C117.147 4.57589 117.287 4.10268 117.287 3.47433Z" fill="#12A400"/>
<path d="M122.825 6.38074H119.646V0.615234H122.825V1.6169H120.817V2.88279H122.685V3.88445H120.817V5.37118H122.825V6.38074Z" fill="#12A400"/>
<path d="M125.588 0.615234C126.089 0.615234 126.501 0.678331 126.826 0.804527C127.153 0.930719 127.396 1.12133 127.554 1.37634C127.713 1.63136 127.792 1.95342 127.792 2.34252C127.792 2.60542 127.744 2.83546 127.649 3.03264C127.553 3.22983 127.428 3.39678 127.271 3.53348C127.115 3.6702 126.947 3.78193 126.766 3.86869L128.389 6.38074H127.09L125.773 4.1684H125.15V6.38074H123.98V0.615234H125.588ZM125.505 1.6169H125.15V3.17462H125.528C125.915 3.17462 126.192 3.10757 126.358 2.9735C126.527 2.83678 126.611 2.63696 126.611 2.37407C126.611 2.10065 126.52 1.9061 126.339 1.79042C126.16 1.67474 125.882 1.6169 125.505 1.6169Z" fill="#12A400"/>
<path d="M132.461 6.38097L132.061 5.0086H130.049L129.649 6.38097H128.389L130.336 0.591797H131.767L133.722 6.38097H132.461ZM131.782 3.98327L131.382 2.64246C131.357 2.55307 131.323 2.4387 131.28 2.29936C131.24 2.1574 131.198 2.01411 131.155 1.86951C131.115 1.72229 131.082 1.59478 131.057 1.48699C131.032 1.59478 130.997 1.72886 130.952 1.88923C130.909 2.04698 130.867 2.19683 130.827 2.3388C130.787 2.48077 130.758 2.58199 130.74 2.64246L130.344 3.98327H131.782Z" fill="#12A400"/>
<path d="M134.42 6.38074V0.615234H135.59V5.37118H137.829V6.38074H134.42Z" fill="#12A400"/>
<path d="M63.4348 10.6875C63.8249 10.6875 64.1467 10.7384 64.4002 10.8403C64.6557 10.9399 64.8465 11.0927 64.9722 11.2988C65.0979 11.5048 65.1607 11.7674 65.1607 12.0866C65.1607 12.3492 65.1151 12.5688 65.0241 12.7454C64.9332 12.9197 64.814 13.0612 64.6666 13.1699C64.5194 13.2785 64.3621 13.3623 64.1953 13.4212L65.4989 15.6522H64.8553L63.6916 13.5808H62.7035V15.6522H62.1509V10.6875H63.4348ZM63.4023 11.1867H62.7035V13.0918H63.4575C63.8453 13.0918 64.1303 13.0091 64.3123 12.8439C64.4965 12.6786 64.5887 12.4352 64.5887 12.1138C64.5887 11.7764 64.4912 11.5376 64.2961 11.3972C64.1033 11.2569 63.8052 11.1867 63.4023 11.1867Z" fill="#363636"/>
<path d="M66.7183 11.9313V15.6532H66.1785V11.9313H66.7183ZM66.4549 10.5391C66.5437 10.5391 66.6195 10.5696 66.6825 10.6307C66.7475 10.6896 66.78 10.7824 66.78 10.9092C66.78 11.0337 66.7475 11.1265 66.6825 11.1877C66.6195 11.2488 66.5437 11.2794 66.4549 11.2794C66.3617 11.2794 66.2836 11.2488 66.2209 11.1877C66.1601 11.1265 66.1299 11.0337 66.1299 10.9092C66.1299 10.7824 66.1601 10.6896 66.2209 10.6307C66.2836 10.5696 66.3617 10.5391 66.4549 10.5391Z" fill="#363636"/>
<path d="M70.9339 13.7853C70.9339 14.091 70.8961 14.3638 70.8203 14.6037C70.7444 14.8437 70.635 15.0463 70.4919 15.2116C70.3488 15.3769 70.1757 15.5036 69.9718 15.5919C69.7702 15.678 69.5417 15.721 69.2861 15.721C69.0477 15.721 68.8288 15.678 68.6295 15.5919C68.4322 15.5036 68.261 15.3769 68.1159 15.2116C67.9728 15.0463 67.8613 14.8437 67.781 14.6037C67.7031 14.3638 67.6641 14.091 67.6641 13.7853C67.6641 13.3778 67.7301 13.0315 67.8624 12.7462C67.9944 12.4587 68.1831 12.2402 68.4279 12.0908C68.675 11.9391 68.9686 11.8633 69.3088 11.8633C69.6339 11.8633 69.9177 11.9391 70.1603 12.0908C70.4053 12.2425 70.5948 12.4621 70.7293 12.7496C70.8657 13.0349 70.9339 13.3801 70.9339 13.7853ZM68.2232 13.7853C68.2232 14.0842 68.261 14.3434 68.3369 14.563C68.4127 14.7826 68.5297 14.9524 68.6879 15.0724C68.8462 15.1924 69.0498 15.2523 69.299 15.2523C69.546 15.2523 69.7488 15.1924 69.9068 15.0724C70.0673 14.9524 70.1853 14.7826 70.2611 14.563C70.337 14.3434 70.375 14.0842 70.375 13.7853C70.375 13.4888 70.337 13.2329 70.2611 13.0179C70.1853 12.8005 70.0683 12.633 69.9101 12.5153C69.7518 12.3976 69.5472 12.3387 69.2957 12.3387C68.9253 12.3387 68.6534 12.4666 68.48 12.7224C68.3087 12.9783 68.2232 13.3325 68.2232 13.7853Z" fill="#363636"/>
<path d="M75.7086 13.052H77.3695V15.4597C77.1203 15.548 76.8635 15.6136 76.5991 15.6566C76.3368 15.6997 76.0432 15.7212 75.7182 15.7212C75.2242 15.7212 74.807 15.6182 74.4668 15.4121C74.1288 15.2061 73.872 14.913 73.6964 14.5326C73.521 14.15 73.4331 13.6961 73.4331 13.1709C73.4331 12.657 73.5296 12.2087 73.7224 11.8261C73.9174 11.4435 74.1981 11.1469 74.5643 10.9364C74.9327 10.7236 75.3747 10.6172 75.8905 10.6172C76.1549 10.6172 76.4051 10.6432 76.6415 10.6953C76.8796 10.7451 77.1008 10.8164 77.3045 10.9092L77.0931 11.4118C76.9177 11.3326 76.7236 11.2647 76.5114 11.2081C76.3011 11.1515 76.0833 11.1232 75.858 11.1232C75.4702 11.1232 75.1376 11.2069 74.8601 11.3745C74.5849 11.542 74.3736 11.7786 74.2264 12.0842C74.0812 12.3898 74.0084 12.7521 74.0084 13.1709C74.0084 13.5852 74.0724 13.9463 74.2004 14.2542C74.3282 14.5598 74.5275 14.7975 74.7984 14.9673C75.0693 15.1371 75.4181 15.222 75.8449 15.222C76.0596 15.222 76.2438 15.2095 76.3976 15.1846C76.5515 15.1575 76.6911 15.1258 76.8169 15.0895V13.5682H75.7086V13.052Z" fill="#363636"/>
<path d="M80.0576 11.8633C80.1291 11.8633 80.2039 11.8678 80.2818 11.8769C80.3599 11.8837 80.4292 11.8938 80.49 11.9074L80.4217 12.4304C80.3632 12.4145 80.2982 12.4021 80.2266 12.393C80.1551 12.384 80.088 12.3794 80.0251 12.3794C79.8821 12.3794 79.7466 12.41 79.6188 12.4711C79.4931 12.53 79.3825 12.616 79.2872 12.7292C79.1919 12.8401 79.1171 12.9749 79.0629 13.1333C79.0088 13.2895 78.9818 13.4639 78.9818 13.6563V15.653H78.439V11.9312H78.8875L78.946 12.6172H78.9687C79.0423 12.4791 79.1312 12.3534 79.2353 12.2402C79.3391 12.1248 79.4596 12.0331 79.5959 11.9651C79.7347 11.8972 79.8885 11.8633 80.0576 11.8633Z" fill="#363636"/>
<path d="M82.4953 11.8691C82.9201 11.8691 83.2354 11.9687 83.4413 12.168C83.6472 12.3672 83.75 12.6853 83.75 13.1222V15.6521H83.3566L83.2528 15.102H83.2266C83.127 15.2378 83.023 15.3521 82.9146 15.445C82.8063 15.5355 82.6805 15.6046 82.5376 15.6521C82.3968 15.6974 82.2234 15.72 82.0175 15.72C81.8008 15.72 81.608 15.6804 81.4389 15.6012C81.2721 15.522 81.1398 15.402 81.0423 15.2412C80.9471 15.0805 80.8994 14.8767 80.8994 14.63C80.8994 14.2587 81.0403 13.9734 81.322 13.7742C81.6037 13.575 82.0327 13.4663 82.6092 13.4482L83.2235 13.421V13.1935C83.2235 12.872 83.1573 12.6468 83.0252 12.5177C82.893 12.3887 82.7067 12.3242 82.4661 12.3242C82.2798 12.3242 82.102 12.3525 81.9331 12.4091C81.764 12.4657 81.6037 12.5325 81.452 12.6094L81.2862 12.1816C81.4465 12.0955 81.6307 12.0219 81.8388 11.9608C82.0468 11.8997 82.2657 11.8691 82.4953 11.8691ZM83.217 13.8184L82.6742 13.8421C82.2299 13.8602 81.9167 13.9361 81.7348 14.0697C81.5528 14.2032 81.4616 14.3923 81.4616 14.6368C81.4616 14.8496 81.5234 15.0069 81.6471 15.1088C81.7706 15.2107 81.9341 15.2616 82.1377 15.2616C82.4542 15.2616 82.713 15.1699 82.9146 14.9865C83.1162 14.8031 83.217 14.5281 83.217 14.1613V13.8184Z" fill="#363636"/>
<path d="M86.5487 11.8633C86.9713 11.8633 87.2908 11.9719 87.5075 12.1893C87.7242 12.4044 87.8326 12.7507 87.8326 13.2284V15.653H87.2996V13.2658C87.2996 12.9556 87.2313 12.7236 87.0948 12.5696C86.9604 12.4157 86.7535 12.3387 86.4739 12.3387C86.0795 12.3387 85.8023 12.4553 85.6418 12.6885C85.4815 12.9217 85.4013 13.2601 85.4013 13.7038V15.653H84.8618V11.9312H85.2973L85.3784 12.4677H85.4077C85.4835 12.3364 85.58 12.2266 85.697 12.1383C85.8141 12.0478 85.9452 11.9799 86.0903 11.9346C86.2355 11.8871 86.3884 11.8633 86.5487 11.8633Z" fill="#363636"/>
<path d="M90.2652 15.6468C89.8144 15.6468 89.4568 15.486 89.1925 15.1646C88.9304 14.8431 88.7993 14.3654 88.7993 13.7315C88.7993 13.0908 88.9336 12.6075 89.2023 12.2815C89.4709 11.9532 89.8285 11.7891 90.275 11.7891C90.4635 11.7891 90.6281 11.8151 90.7689 11.8672C90.9098 11.9193 91.0312 11.9895 91.1331 12.0778C91.2349 12.1638 91.3205 12.2623 91.3898 12.3732H91.4289C91.4201 12.303 91.4115 12.2068 91.4027 12.0845C91.3941 11.9623 91.3898 11.8627 91.3898 11.7857V10.2949H91.9294V15.5789H91.4939L91.4125 15.0491H91.3898C91.3226 15.1601 91.2371 15.2608 91.1331 15.3514C91.0312 15.4419 90.9088 15.5143 90.7657 15.5687C90.6248 15.6208 90.458 15.6468 90.2652 15.6468ZM90.3496 15.1782C90.7311 15.1782 91.0008 15.065 91.159 14.8386C91.3173 14.6122 91.3964 14.276 91.3964 13.83V13.7281C91.3964 13.255 91.3205 12.8916 91.1688 12.6381C91.0192 12.3845 90.7462 12.2577 90.3496 12.2577C90.0182 12.2577 89.77 12.3913 89.6052 12.6584C89.4407 12.9233 89.3583 13.2855 89.3583 13.7451C89.3583 14.2024 89.4396 14.5556 89.6022 14.8046C89.7667 15.0537 90.016 15.1782 90.3496 15.1782Z" fill="#363636"/>
<path d="M94.4449 11.7891C94.7483 11.7891 95.0082 11.8592 95.2249 11.9996C95.4416 12.14 95.6074 12.3369 95.7223 12.5905C95.8372 12.8418 95.8946 13.1361 95.8946 13.4734V13.8232H93.434C93.4405 14.2601 93.5446 14.5929 93.7459 14.8216C93.9475 15.0502 94.2315 15.1645 94.5976 15.1645C94.8229 15.1645 95.0223 15.143 95.1956 15.1C95.369 15.057 95.5489 14.9936 95.7354 14.9098V15.4056C95.5555 15.4894 95.3766 15.5505 95.1989 15.589C95.0235 15.6275 94.8154 15.6468 94.575 15.6468C94.2325 15.6468 93.9334 15.5743 93.6779 15.4294C93.4241 15.2823 93.2271 15.0672 93.0862 14.7842C92.9453 14.5012 92.875 14.1548 92.875 13.7451C92.875 13.3444 92.9388 12.998 93.0668 12.7059C93.1968 12.4116 93.3788 12.1852 93.6128 12.0268C93.849 11.8683 94.1264 11.7891 94.4449 11.7891ZM94.4384 12.2509C94.1501 12.2509 93.9205 12.3494 93.7492 12.5463C93.5781 12.7433 93.4763 13.0184 93.4438 13.3715H95.3289C95.3269 13.1497 95.2932 12.955 95.2282 12.7874C95.1654 12.6177 95.0689 12.4863 94.9389 12.3935C94.8088 12.2984 94.642 12.2509 94.4384 12.2509Z" fill="#363636"/>
<path d="M99.8084 15.6468C99.3576 15.6468 99 15.486 98.7356 15.1646C98.4735 14.8431 98.3423 14.3654 98.3423 13.7315C98.3423 13.0908 98.4766 12.6075 98.7454 12.2815C99.0141 11.9532 99.3717 11.7891 99.818 11.7891C100.007 11.7891 100.171 11.8151 100.312 11.8672C100.453 11.9193 100.574 11.9895 100.676 12.0778C100.778 12.1638 100.863 12.2623 100.933 12.3732H100.972C100.963 12.303 100.955 12.2068 100.946 12.0845C100.937 11.9623 100.933 11.8627 100.933 11.7857V10.2949H101.473V15.5789H101.037L100.956 15.0491H100.933C100.866 15.1601 100.78 15.2608 100.676 15.3514C100.574 15.4419 100.452 15.5143 100.309 15.5687C100.168 15.6208 100.001 15.6468 99.8084 15.6468ZM99.8928 15.1782C100.274 15.1782 100.544 15.065 100.702 14.8386C100.86 14.6122 100.939 14.276 100.939 13.83V13.7281C100.939 13.255 100.863 12.8916 100.712 12.6381C100.562 12.3845 100.289 12.2577 99.8928 12.2577C99.5612 12.2577 99.3132 12.3913 99.1484 12.6584C98.9838 12.9233 98.9014 13.2855 98.9014 13.7451C98.9014 14.2024 98.9826 14.5556 99.1451 14.8046C99.3099 15.0537 99.5591 15.1782 99.8928 15.1782Z" fill="#363636"/>
<path d="M105.689 13.7111C105.689 14.0167 105.651 14.2895 105.575 14.5295C105.499 14.7695 105.389 14.9721 105.246 15.1374C105.103 15.3026 104.93 15.4294 104.726 15.5177C104.525 15.6037 104.296 15.6468 104.041 15.6468C103.802 15.6468 103.583 15.6037 103.384 15.5177C103.187 15.4294 103.015 15.3026 102.87 15.1374C102.727 14.9721 102.616 14.7695 102.536 14.5295C102.458 14.2895 102.418 14.0167 102.418 13.7111C102.418 13.3036 102.485 12.9572 102.617 12.672C102.749 12.3845 102.938 12.166 103.182 12.0166C103.429 11.8649 103.723 11.7891 104.063 11.7891C104.388 11.7891 104.672 11.8649 104.915 12.0166C105.16 12.1683 105.349 12.3879 105.484 12.6754C105.62 12.9606 105.689 13.3059 105.689 13.7111ZM102.978 13.7111C102.978 14.01 103.015 14.2692 103.091 14.4888C103.167 14.7084 103.284 14.8782 103.443 14.9981C103.601 15.1181 103.804 15.1781 104.053 15.1781C104.301 15.1781 104.503 15.1181 104.661 14.9981C104.822 14.8782 104.94 14.7084 105.016 14.4888C105.091 14.2692 105.129 14.01 105.129 13.7111C105.129 13.4145 105.091 13.1587 105.016 12.9437C104.94 12.7263 104.823 12.5588 104.664 12.4411C104.506 12.3233 104.302 12.2645 104.05 12.2645C103.68 12.2645 103.408 12.3924 103.234 12.6482C103.063 12.904 102.978 13.2583 102.978 13.7111Z" fill="#363636"/>
<path d="M112.147 15.58H111.51L108.919 11.4099H108.893C108.9 11.5208 108.907 11.6476 108.916 11.7902C108.925 11.9306 108.931 12.0811 108.935 12.2418C108.942 12.4003 108.945 12.5622 108.945 12.7274V15.58H108.432V10.6152H109.065L111.646 14.7718H111.669C111.665 14.6925 111.659 14.5805 111.653 14.4356C111.646 14.2884 111.64 14.1311 111.633 13.9635C111.629 13.7938 111.627 13.6364 111.627 13.4915V10.6152H112.147V15.58Z" fill="#363636"/>
<path d="M116.434 13.7111C116.434 14.0167 116.396 14.2895 116.32 14.5295C116.244 14.7695 116.135 14.9721 115.992 15.1374C115.849 15.3026 115.675 15.4294 115.472 15.5177C115.27 15.6037 115.042 15.6468 114.786 15.6468C114.548 15.6468 114.329 15.6037 114.129 15.5177C113.932 15.4294 113.761 15.3026 113.616 15.1374C113.473 14.9721 113.361 14.7695 113.281 14.5295C113.203 14.2895 113.164 14.0167 113.164 13.7111C113.164 13.3036 113.23 12.9572 113.362 12.672C113.494 12.3845 113.683 12.166 113.928 12.0166C114.175 11.8649 114.468 11.7891 114.809 11.7891C115.134 11.7891 115.418 11.8649 115.66 12.0166C115.905 12.1683 116.095 12.3879 116.229 12.6754C116.366 12.9606 116.434 13.3059 116.434 13.7111ZM113.723 13.7111C113.723 14.01 113.761 14.2692 113.837 14.4888C113.913 14.7084 114.03 14.8782 114.188 14.9981C114.346 15.1181 114.55 15.1781 114.799 15.1781C115.046 15.1781 115.249 15.1181 115.407 14.9981C115.567 14.8782 115.685 14.7084 115.761 14.4888C115.837 14.2692 115.875 14.01 115.875 13.7111C115.875 13.4145 115.837 13.1587 115.761 12.9437C115.685 12.7263 115.568 12.5588 115.41 12.4411C115.252 12.3233 115.047 12.2645 114.796 12.2645C114.425 12.2645 114.153 12.3924 113.98 12.6482C113.809 12.904 113.723 13.2583 113.723 13.7111Z" fill="#363636"/>
<path d="M118.986 11.7891C119.057 11.7891 119.132 11.7936 119.21 11.8026C119.288 11.8094 119.357 11.8196 119.418 11.8332L119.35 12.3562C119.291 12.3403 119.226 12.3279 119.155 12.3188C119.083 12.3098 119.016 12.3052 118.953 12.3052C118.81 12.3052 118.675 12.3358 118.547 12.3969C118.421 12.4558 118.311 12.5418 118.215 12.655C118.12 12.7659 118.045 12.9006 117.991 13.0591C117.937 13.2153 117.91 13.3896 117.91 13.5821V15.5788H117.367V11.857H117.816L117.874 12.5429H117.897C117.971 12.4048 118.059 12.2792 118.164 12.166C118.268 12.0505 118.388 11.9588 118.524 11.8909C118.663 11.823 118.817 11.7891 118.986 11.7891Z" fill="#363636"/>
<path d="M121.241 15.1846C121.33 15.1846 121.421 15.1767 121.514 15.1609C121.607 15.145 121.683 15.1258 121.742 15.1031V15.5412C121.679 15.5706 121.591 15.5955 121.479 15.6159C121.368 15.6363 121.26 15.6465 121.154 15.6465C120.965 15.6465 120.794 15.6125 120.64 15.5446C120.486 15.4744 120.363 15.3567 120.269 15.1914C120.178 15.0261 120.133 14.7975 120.133 14.5054V12.2981H119.626V12.0231L120.136 11.8024L120.351 10.9941H120.676V11.8567H121.719V12.2981H120.676V14.4885C120.676 14.7216 120.727 14.896 120.829 15.0114C120.933 15.1269 121.07 15.1846 121.241 15.1846Z" fill="#363636"/>
<path d="M123.835 11.7891C124.138 11.7891 124.399 11.8592 124.615 11.9996C124.832 12.14 124.998 12.3369 125.113 12.5905C125.227 12.8418 125.285 13.1361 125.285 13.4734V13.8232H122.824C122.831 14.2601 122.935 14.5929 123.136 14.8216C123.338 15.0502 123.622 15.1645 123.988 15.1645C124.213 15.1645 124.413 15.143 124.586 15.1C124.759 15.057 124.939 14.9936 125.126 14.9098V15.4056C124.946 15.4894 124.767 15.5505 124.589 15.589C124.414 15.6275 124.206 15.6468 123.965 15.6468C123.623 15.6468 123.324 15.5743 123.068 15.4294C122.814 15.2823 122.617 15.0672 122.477 14.7842C122.336 14.5012 122.265 14.1548 122.265 13.7451C122.265 13.3444 122.329 12.998 122.457 12.7059C122.587 12.4116 122.769 12.1852 123.003 12.0268C123.239 11.8683 123.517 11.7891 123.835 11.7891ZM123.829 12.2509C123.54 12.2509 123.311 12.3494 123.14 12.5463C122.968 12.7433 122.867 13.0184 122.834 13.3715H124.719C124.717 13.1497 124.684 12.955 124.618 12.7874C124.556 12.6177 124.459 12.4863 124.329 12.3935C124.199 12.2984 124.032 12.2509 123.829 12.2509Z" fill="#363636"/>
<path d="M39.6608 3.30933H39.6033L39.4604 0.828905H37.2007C37.2863 2.20342 37.315 3.69777 37.315 5.55073V22.3857H39.8323V13.3507H39.8895C40.719 14.7853 42.2924 15.6223 44.1516 15.6223C47.3841 15.6223 50.445 13.0522 50.445 7.85178C50.445 3.45887 47.9279 0.5 44.5525 0.5C42.321 0.5 40.6619 1.51616 39.6608 3.30933ZM39.947 10.4817C39.8609 10.1531 39.8323 9.76439 39.8323 9.40604V6.8954C39.8323 6.567 39.9182 6.1782 39.9754 5.84967C40.4616 3.84744 42.0922 2.59198 43.8083 2.59198C46.469 2.59198 47.8991 5.07254 47.8991 7.97147C47.8991 11.2888 46.3545 13.5603 43.694 13.5603C41.9205 13.5603 40.3759 12.305 39.947 10.4817Z" fill="#12A400"/>
<path d="M25.0585 1.75532L25.6307 3.51852C26.6031 2.83101 27.9475 2.44258 29.2635 2.44258C32.0953 2.41275 32.4103 4.59434 32.4103 5.78975V6.08883C27.0608 6.05886 24.0859 7.97149 24.0859 11.4679C24.0859 13.5603 25.5162 15.6223 28.3196 15.6223C30.2931 15.6223 31.8094 14.6059 32.553 13.4704H32.6389L32.8679 15.2934H35.1276C34.9847 14.3071 34.9274 13.082 34.9274 11.8268V6.41735C34.9274 3.51852 33.8974 0.5 29.6354 0.5C27.8904 0.5 26.2028 1.00802 25.0585 1.75532ZM26.6031 11.1695C26.6031 8.35993 29.7212 7.85177 32.4673 7.91158V10.4222C32.4673 10.6912 32.4387 10.9899 32.3526 11.2587C31.9526 12.4842 30.7797 13.6795 28.9489 13.6795C27.6903 13.6795 26.6031 12.9025 26.6031 11.1695Z" fill="#12A400"/>
<path d="M19.6766 0.828125V9.67424C19.6766 10.1823 19.5907 10.6605 19.4477 11.0189C18.9902 12.2145 17.8172 13.4397 16.1294 13.4397C13.8695 13.4397 13.0402 11.5569 13.0402 8.80725V0.828125H10.5229V9.28557C10.5229 14.3363 13.1259 15.6215 15.2999 15.6215C17.76 15.6215 19.2476 14.097 19.8768 12.9317H19.9341L20.0769 15.2927H22.3082C22.2225 14.157 22.1937 12.8422 22.1937 11.3179V0.828125H19.6766Z" fill="#12A400"/>
<path d="M0.371925 4.74375C0.371925 6.44717 1.54468 7.88174 4.062 8.83799C5.89283 9.55519 6.60787 10.2131 6.60787 11.4679C6.60787 12.6934 5.74982 13.6197 3.94766 13.6197C2.68889 13.6197 1.37312 13.082 0.600836 12.6039L0 14.5761C0.97264 15.1738 2.37419 15.5922 3.89043 15.5922C7.12295 15.5922 9.03943 13.7993 9.03943 11.2289C9.03943 9.07713 7.78077 7.82219 5.40657 6.89541C3.60429 6.14848 2.80346 5.61051 2.80346 4.41512C2.80346 3.33904 3.60429 2.44258 5.09187 2.44258C6.3791 2.44258 7.3804 2.9506 7.92378 3.27962L8.5246 1.39659C7.78077 0.888697 6.55077 0.5 5.14897 0.5C2.20275 0.5 0.371925 2.41274 0.371925 4.74375Z" fill="#12A400"/>
</g>
<defs>
<clipPath id="clip0_1548_9479">
<rect width="138" height="22" fill="white" transform="translate(0 0.5)"/>
</clipPath>
</defs>
</svg>
